#!OML:ASF F:\VICON\USERDATA\INSTALL\rory3\rory3.ASF
:FULLY-SPECIFIED
:DEGREES
465
root 4.59024 16.1697 2.19455 18.7389 -9.03596 -3.08156
lowerback 8.31381 -0.263556 2.45
upperback 1.36778 -0.135586 0.0212187
thorax -3.24979 -0.0952984 -1.34071
lowerneck -14.7432 -0.280371 -1.30468
upperneck 38.5599 0.494554 -1.59456
head 16.2733 -0.261598 -0.392332
rclavicle 6.75868e-015 -7.95139e-015
rhumerus -54.058 31.5859 -79.5498
rradius 85.8083
rwrist -13.5335
rhand -10.2347 -39.8789
rfingers 7.12502
rthumb 15.7576 -69.2575
lclavicle 6.75868e-015 -7.95139e-015
lhumerus -39.109 -48.3359 75.776
lradius 75.4531
lwrist 40.5445
lhand -20.3499 -29.4663
lfingers 7.12502
lthumb 6.00203 0.428657
rfemur -71.1108 5.86391 13.91
rtibia 36.1756
rfoot 39.2008 -0.206063
rtoes 6.79674
lfemur -48.5781 -2.4764 -26.1909
ltibia 55.3505
lfoot -22.656 7.67365
ltoes 14.7487
466
root 4.59034 16.1585 2.18972 18.7824 -8.95455 -2.91801
lowerback 8.44557 -0.278307 2.37198
upperback 1.37197 -0.159147 0.00239454
thorax -3.31967 -0.106972 -1.31358
lowerneck -14.8912 -0.342066 -1.5037
upperneck 38.686 0.400169 -1.40932
head 16.3752 -0.305045 -0.293929
rclavicle 1.93815e-014 6.36111e-015
rhumerus -54.4411 31.6696 -79.6474
rradius 85.6185
rwrist -13.9515
rhand -10.7318 -39.7826
rfingers 7.12502
rthumb 15.2788 -69.1983
lclavicle 1.93815e-014 6.36111e-015
lhumerus -39.382 -48.3473 75.8941
lradius 75.1255
lwrist 40.4798
lhand -20.8267 -29.946
lfingers 7.12502
lthumb 5.54166 -0.0384345
rfemur -71.2537 5.76331 13.6953
rtibia 36.2406
rfoot 39.3079 -0.454133
rtoes 7.37064
lfemur -48.7084 -2.59528 -26.344
ltibia 55.4202
lfoot -22.6711 7.64659
ltoes 13.73
467
root 4.59048 16.152 2.18287 18.8051 -8.91651 -2.77169
lowerback 8.60675 -0.277942 2.25147
upperback 1.4371 -0.166679 -0.00832603
thorax -3.34191 -0.109167 -1.2559
lowerneck -15.2503 -0.4403 -1.5607
upperneck 38.8591 0.277787 -1.39535
head 16.5567 -0.36377 -0.302566
rclavicle 1.66979e-014 2.78299e-015
rhumerus -54.6856 31.685 -79.6485
rradius 85.4476
rwrist -14.2447
rhand -10.7619 -40.5231
rfingers 7.12502
rthumb 15.2498 -69.941
lclavicle 1.66979e-014 2.78299e-015
lhumerus -39.528 -48.4195 75.8813
lradius 74.8288
lwrist 40.5238
lhand -21.1081 -30.4169
lfingers 7.12502
lthumb 5.26993 -0.502413
rfemur -71.3721 5.7443 13.4516
rtibia 36.3136
rfoot 39.3305 -0.82894
rtoes 7.64766
lfemur -48.7995 -2.67451 -26.484
ltibia 55.4733
lfoot -22.6062 7.636
ltoes 12.3868
468
root 4.5863 16.1432 2.17454 18.8578 -8.93445 -2.7892
lowerback 8.84309 -0.254542 2.19398
upperback 1.39531 -0.132782 0.033753
thorax -3.51533 -0.0937274 -1.18357
lowerneck -15.1714 -0.452023 -1.55369
upperneck 38.8442 0.274532 -1.44321
head 16.5293 -0.370035 -0.324971
rclavicle -1.33186e-014 2.98177e-014
rhumerus -55.0946 31.8258 -79.6943
rradius 85.1483
rwrist -14.2398
rhand -11.3546 -39.0941
rfingers 7.12502
rthumb 14.6789 -68.5545
lclavicle -1.33186e-014 2.98177e-014
lhumerus -40.0421 -48.3911 76.1001
lradius 74.5801
lwrist 40.1272
lhand -21.8867 -31.2134
lfingers 7.12502
lthumb 4.51817 -1.2816
rfemur -71.5226 5.92013 13.3019
rtibia 36.3771
rfoot 39.2905 -1.21733
rtoes 7.90466
lfemur -48.9712 -2.6255 -26.4441
ltibia 55.5481
lfoot -22.5572 7.514
ltoes 12.6274
469
root 4.5882 16.1463 2.17867 18.9637 -8.86357 -2.9712
lowerback 8.77847 -0.25989 2.47039
upperback 1.32248 -0.112114 0.0934637
thorax -3.55455 -0.0875895 -1.2796
lowerneck -14.755 -0.451074 -1.58658
upperneck 38.6903 0.300587 -1.51133
head 16.3446 -0.370709 -0.340755
rclavicle -2.28602e-014 1.31198e-014
rhumerus -55.6532 32.0051 -79.8363
rradius 84.7711
rwrist -14.1585
rhand -11.338 -38.9448
rfingers 7.12502
rthumb 14.6949 -68.404
lclavicle -2.28602e-014 1.31198e-014
lhumerus -40.8142 -48.4434 76.5115
lradius 74.3066
lwrist 39.6171
lhand -22.0638 -31.0146
lfingers 7.12502
lthumb 4.34719 -1.07922
rfemur -71.5636 5.89643 13.5246
rtibia 36.3973
rfoot 39.1497 -1.30902
rtoes 7.87584
lfemur -49.0773 -2.62943 -26.2474
ltibia 55.5951
lfoot -22.5896 7.50464
ltoes 12.7461
470
root 4.58735 16.1427 2.17706 18.934 -8.93533 -2.95303
lowerback 9.0008 -0.229658 2.44613
upperback 1.30481 -0.0677713 0.0918252
thorax -3.69494 -0.0671844 -1.27281
lowerneck -14.6559 -0.463154 -1.43983
upperneck 38.7249 0.355771 -1.82289
head 16.3401 -0.369327 -0.494006
rclavicle -2.49475e-014 -3.18055e-015
rhumerus -56.052 32.1337 -79.9435
rradius 84.4714
rwrist -14.2228
rhand -11.3019 -39.6989
rfingers 7.12502
rthumb 14.7297 -69.1556
lclavicle -2.49475e-014 -3.18055e-015
lhumerus -41.2665 -48.6419 76.7005
lradius 73.9422
lwrist 39.4037
lhand -21.4778 -30.6539
lfingers 7.12502
lthumb 4.913 -0.730861
rfemur -71.5584 5.99406 13.4473
rtibia 36.413
rfoot 39.1056 -1.46681
rtoes 7.88127
lfemur -49.0927 -2.56461 -26.3025
ltibia 55.6651
lfoot -22.5966 7.65535
ltoes 14.5826
471
root 4.5895 16.1352 2.17213 18.9917 -8.9119 -2.94558
lowerback 9.16075 -0.243394 2.45024
upperback 1.38051 -0.082167 0.0950432
thorax -3.70591 -0.0739038 -1.27005
lowerneck -14.8794 -0.447963 -1.13757
upperneck 38.7802 0.444279 -2.22103
head 16.4276 -0.344664 -0.709723
rclavicle -2.61402e-014 -1.19271e-015
rhumerus -56.1615 32.2559 -79.918
rradius 84.2847
rwrist -14.3871
rhand -10.8919 -40.4868
rfingers 7.12502
rthumb 15.1246 -69.9142
lclavicle -2.61402e-014 -1.19271e-015
lhumerus -41.3671 -48.6561 76.5171
lradius 73.695
lwrist 39.2743
lhand -21.0783 -30.6895
lfingers 7.12502
lthumb 5.29873 -0.775758
rfemur -71.6368 5.89774 13.5098
rtibia 36.4178
rfoot 39.1094 -1.45543
rtoes 8.15066
lfemur -49.218 -2.59353 -26.3262
ltibia 55.7466
lfoot -22.6453 7.92181
ltoes 10.2821
472
root 4.5896 16.1266 2.16731 19.2037 -8.75488 -3.01695
lowerback 9.1255 -0.310773 2.54994
upperback 1.45394 -0.162384 0.134825
thorax -3.61333 -0.112936 -1.27523
lowerneck -15.2335 -0.450232 -1.09357
upperneck 38.7402 0.425688 -2.19969
head 16.4944 -0.343824 -0.712981
rclavicle 1.68967e-014 -3.97569e-015
rhumerus -56.1639 32.4052 -79.8435
rradius 84.0682
rwrist -14.3625
rhand -12.4211 -38.2948
rfingers 7.12502
rthumb 13.6512 -67.8272
lclavicle 1.68967e-014 -3.97569e-015
lhumerus -41.5465 -48.4714 76.276
lradius 73.6013
lwrist 38.9323
lhand -20.427 -29.9611
lfingers 7.12502
lthumb 5.92762 -0.0640406
rfemur -71.833 5.70521 13.7112
rtibia 36.4079
rfoot 38.919 -1.31846
rtoes 7.30754
lfemur -49.5228 -2.69782 -26.2128
ltibia 55.8494
lfoot -22.6854 8.10504
ltoes 8.52848
473
root 4.5892 16.1228 2.16468 19.378 -8.66686 -3.07626
lowerback 9.06527 -0.360361 2.63606
upperback 1.48261 -0.220908 0.164737
thorax -3.55262 -0.141801 -1.28578
lowerneck -15.4122 -0.444187 -1.20179
upperneck 38.712 0.397547 -2.00618
head 16.5229 -0.344973 -0.613801
rclavicle -8.34896e-015 -1.76918e-014
rhumerus -56.3308 32.546 -79.8524
rradius 83.8151
rwrist -14.293
rhand -11.5068 -39.6121
rfingers 7.12502
rthumb 14.5322 -69.0831
lclavicle -8.34896e-015 -1.76918e-014
lhumerus -41.9176 -48.3385 76.2681
lradius 73.398
lwrist 38.571
lhand -19.9527 -29.4362
lfingers 7.12502
lthumb 6.38544 0.447579
rfemur -71.97 5.59079 13.8785
rtibia 36.385
rfoot 39.26 -1.30589
rtoes 8.80791
lfemur -49.7971 -2.76019 -26.1074
ltibia 55.9538
lfoot -22.5483 7.62273
ltoes 10.3877
474
root 4.59368 16.1198 2.16138 19.5382 -8.55289 -3.18711
lowerback 8.99739 -0.416394 2.84858
upperback 1.44979 -0.274548 0.209081
thorax -3.55191 -0.170946 -1.35302
lowerneck -15.1845 -0.368077 -1.16702
upperneck 38.6547 0.505085 -2.03646
head 16.4367 -0.298953 -0.611969
rclavicle 2.0773e-014 -9.54166e-015
rhumerus -56.6874 32.7612 -79.9627
rradius 83.5185
rwrist -14.3982
rhand -10.9295 -40.3526
rfingers 7.12502
rthumb 15.0885 -69.7827
lclavicle 2.0773e-014 -9.54166e-015
lhumerus -42.4263 -48.2509 76.4762
lradius 73.0879
lwrist 38.4025
lhand -20.1324 -29.7002
lfingers 7.12502
lthumb 6.21203 0.188693
rfemur -72.0551 5.36586 14.1964
rtibia 36.3686
rfoot 38.8884 -1.27877
rtoes 7.30221
lfemur -50.0658 -2.88334 -25.9471
ltibia 56.0637
lfoot -22.7751 7.95176
ltoes 9.647
475
root 4.5966 16.114 2.15705 19.6417 -8.3887 -3.3245
lowerback 9.10809 -0.466044 3.07716
upperback 1.36819 -0.309801 0.278585
thorax -3.70073 -0.193702 -1.4046
lowerneck -14.9067 -0.345753 -1.20604
upperneck 38.6475 0.52511 -1.99051
head 16.3635 -0.289049 -0.579695
rclavicle -1.27222e-014 -1.03368e-014
rhumerus -57.1225 33.0518 -80.129
rradius 83.1163
rwrist -14.4628
rhand -11.0713 -40.2245
rfingers 7.12502
rthumb 14.9518 -69.6648
lclavicle -1.27222e-014 -1.03368e-014
lhumerus -43.0608 -48.3556 76.8213
lradius 72.7578
lwrist 38.3459
lhand -20.4447 -30.2776
lfingers 7.12502
lthumb 5.91051 -0.380034
rfemur -72.0675 5.08928 14.6025
rtibia 36.3681
rfoot 38.9976 -1.19007
rtoes 7.53424
lfemur -50.2615 -2.99648 -25.7729
ltibia 56.1872
lfoot -22.794 8.05515
ltoes 9.30985
476
root 4.59744 16.1087 2.15393 19.6849 -8.24942 -3.38333
lowerback 9.25819 -0.473874 3.21167
upperback 1.36818 -0.299733 0.31457
thorax -3.78433 -0.191514 -1.44354
lowerneck -15.0551 -0.415219 -1.37591
upperneck 38.7329 0.370961 -1.70988
head 16.4427 -0.339014 -0.454993
rclavicle -1.31198e-014 1.23246e-014
rhumerus -57.4937 33.1752 -80.2184
rradius 82.8023
rwrist -14.3718
rhand -11.8034 -39.5751
rfingers 7.12502
rthumb 14.2464 -69.0664
lclavicle -1.31198e-014 1.23246e-014
lhumerus -43.4994 -48.6823 77.0334
lradius 72.4777
lwrist 38.2576
lhand -20.5795 -30.5264
lfingers 7.12502
lthumb 5.7803 -0.625209
rfemur -72.0855 4.8407 14.8845
rtibia 36.3907
rfoot 38.9493 -1.5238
rtoes 8.00195
lfemur -50.3695 -3.07222 -25.6876
ltibia 56.2861
lfoot -22.8149 8.03666
ltoes 9.27203
477
root 4.59746 16.1053 2.15045 19.7488 -8.16833 -3.43326
lowerback 9.2817 -0.458874 3.2942
upperback 1.43894 -0.270751 0.354927
thorax -3.72252 -0.176419 -1.45176
lowerneck -15.1823 -0.457415 -1.43443
upperneck 38.6 0.3 -1.63229
head 16.4036 -0.363937 -0.421528
rclavicle 3.97569e-015 9.93923e-015
rhumerus -57.7899 33.1838 -80.1627
rradius 82.7677
rwrist -14.4593
rhand -12.1425 -39.325
rfingers 7.12502
rthumb 13.9197 -68.8391
lclavicle 3.97569e-015 9.93923e-015
lhumerus -43.6309 -48.845 77.0465
lradius 72.1788
lwrist 37.914
lhand -20.4411 -30.0879
lfingers 7.12502
lthumb 5.91394 -0.19046
rfemur -72.212 4.73063 15.0124
rtibia 36.4909
rfoot 38.8592 -2.00902
rtoes 8.40508
lfemur -50.5086 -3.11933 -25.6032
ltibia 56.3432
lfoot -22.7664 8.01535
ltoes 9.27692
